<?xml version="1.0" standalone="no"?>
<!DOCTYPE svg PUBLIC "-//W3C//DTD SVG 20010904//EN"
 "http://www.w3.org/TR/2001/REC-SVG-20010904/DTD/svg10.dtd">
<svg version="1.0" xmlns="http://www.w3.org/2000/svg"
 width="256.000000pt" height="256.000000pt" viewBox="0 0 256.000000 256.000000"
 preserveAspectRatio="xMidYMid meet">
<metadata>
Created by potrace 1.16, written by Peter Selinger 2001-2019
</metadata>
<g transform="translate(0.000000,256.000000) scale(0.100000,-0.100000)"
fill="#000000" stroke="none">
<path d="M868 1888 c-47 -15 -68 -26 -68 -37 0 -33 49 -118 94 -161 25 -24 46
-48 46 -52 0 -4 -22 -8 -49 -8 -65 0 -91 29 -91 103 0 42 -2 48 -14 38 -8 -7
-17 -30 -21 -52 -7 -42 -19 -48 -47 -23 -17 16 -19 15 -34 -21 -14 -36 -14
-41 3 -79 22 -50 76 -112 116 -132 22 -12 272 -95 352 -118 6 -2 27 3 49 10
50 18 103 18 155 -1 40 -14 44 -13 224 45 203 66 235 85 281 170 28 52 30 92
6 130 -8 12 -13 11 -33 -8 l-25 -23 -6 28 c-10 43 -28 83 -36 83 -5 0 -6 -9
-3 -20 8 -31 -6 -89 -28 -111 -14 -14 -33 -19 -70 -19 l-52 0 50 53 c53 56 88
115 94 157 4 22 -2 27 -51 43 -110 36 -134 34 -254 -18 -104 -45 -112 -47
-185 -43 -63 3 -92 11 -169 46 -105 48 -133 50 -234 20z"/>
<path d="M671 1515 c-1 -31 40 -111 122 -242 83 -131 124 -209 173 -328 l33
-80 1 46 c0 62 -37 165 -117 327 -54 108 -80 148 -128 196 -33 34 -65 70 -72
81 l-12 20 0 -20z"/>
<path d="M1868 1497 c-10 -20 -35 -49 -57 -64 -31 -23 -54 -56 -114 -173 -86
-166 -122 -260 -132 -345 -4 -33 -5 -58 -2 -55 3 3 19 40 36 83 45 112 92 203
166 317 85 131 127 216 123 248 -3 24 -4 24 -20 -11z"/>
<path d="M945 1341 c7 -21 21 -54 31 -72 22 -43 94 -139 104 -139 4 0 2 17 -6
38 -7 20 -13 69 -14 108 l0 71 -58 17 c-32 9 -61 16 -65 16 -3 0 0 -17 8 -39z"/>
<path d="M1560 1362 l-55 -17 3 -50 c3 -44 -5 -91 -24 -151 -3 -11 13 1 35 25
39 42 111 169 111 197 0 17 -1 17 -70 -4z"/>
<path d="M1196 1136 c-58 -101 -106 -187 -106 -190 0 -3 13 -6 29 -6 27 0 35
11 113 144 45 79 86 142 89 140 4 -2 9 -17 13 -35 5 -25 -4 -48 -54 -134 -33
-57 -60 -106 -60 -109 0 -4 13 -6 29 -6 25 0 34 9 72 73 32 54 44 67 47 52 2
-11 10 -44 19 -72 13 -49 17 -53 44 -53 26 0 29 3 24 20 -3 11 -17 59 -30 107
l-24 87 20 33 21 33 -30 0 c-28 0 -31 4 -42 50 -11 45 -15 50 -40 50 -26 0
-36 -14 -134 -184z"/>
<path d="M1108 855 c-5 -88 8 -129 52 -169 87 -79 243 -51 286 51 15 35 19
163 6 163 -5 0 -14 -18 -21 -41 -15 -51 -107 -149 -140 -149 -56 0 -111 53
-155 151 l-24 54 -4 -60z"/>
</g>
</svg>
